# xmcd CD database file
#
# Track frame offsets:
#	150
#	16809
#	33966
#	49147
#	65341
#	85012
#	102634
#	115240
#	134156
#	153728
#	171818
#	190062
#	205135
#	219969
#
# Disc length: 3104 seconds
#
# Revision: 0
# Processed by: cddbd v1.5.2PL0 Copyright (c) Steve Scherf et al.
# Submitted via: CDex 1.51
#
DISCID=c10c1e0e
DTITLE=Rebecca Lynn Howard - No Rules
DYEAR=2008
DGENRE=Country
TTITLE0=Shakey Ground
TTITLE1=New Twist on an Old Groove
TTITLE2=Do Right Woman - Do Right Man
TTITLE3=Soul Sisters
TTITLE4=What Dying Feels Like
TTITLE5=Better Someday
TTITLE6=Just Let It Burn
TTITLE7=As One as Two Can Be
TTITLE8=Sing'Cause I Love To
TTITLE9=Real Love
TTITLE10=I'm Over You
TTITLE11=The Life of a Dollar
TTITLE12=We're in This Love Together
TTITLE13=Throw It Down
EXTD=YEAR: 2008
EXTT0=
EXTT1=
EXTT2=
EXTT3=
EXTT4=
EXTT5=
EXTT6=
EXTT7=
EXTT8=
EXTT9=
EXTT10=
EXTT11=
EXTT12=
EXTT13=
PLAYORDER=
